<svg width="113" height="78" viewBox="0 0 113 78" fill="none" xmlns="http://www.w3.org/2000/svg">
<path fill-rule="evenodd" clip-rule="evenodd" d="M106.195 43.7651C110.457 39.1597 113 33.3345 113 27C113 12.0884 98.8984 0 81.5 0C72.0781 0 63.6211 3.5459 57.8477 9.16553C53.8164 6.54492 48.8594 5 43.5 5C29.9688 5 19 14.8496 19 27L19.0117 27.6353C8.09766 29.9966 0 38.6665 0 49C0 61.1504 11.1914 71 25 71C25.6406 71 26.2734 70.979 26.9023 70.9375C29.4688 70.7676 31.9258 70.2568 34.2188 69.4561C38.793 74.6538 45.9531 78 54 78C61.5625 78 68.3398 75.0454 72.9258 70.3765C76.8711 75.0332 82.8281 78 89.5 78C101.375 78 111 68.5981 111 57C111 51.9829 109.199 47.377 106.195 43.7651Z" fill="#D9D9D9"/>
</svg>
